<svg id="Layer_1" data-name="Layer 1" xmlns="http://www.w3.org/2000/svg" viewBox="0 0 92.79 77.06"><defs><style>.cls-1{fill:#e6e7e9;opacity:0.77;}.cls-2{fill:#8ebee6;}.cls-3{fill:#1c6db6;}</style></defs><title>compu</title><path class="cls-1" d="M7.73,3.09H85.05a4.64,4.64,0,0,1,4.64,4.64V49.49H3.09V7.73A4.64,4.64,0,0,1,7.73,3.09Z"/><path class="cls-2" d="M1.55,57.22A6.18,6.18,0,0,0,7.73,63.4H85.05a6.19,6.19,0,0,0,6.19-6.18V51H1.55Z"/><path class="cls-2" d="M37.11,75.78H55.67L54.13,63.4H38.66Z"/><path class="cls-2" d="M35.81,21.14l3.6-3.6L35,13.17l-3.6,3.6a10.28,10.28,0,0,0-2.06-.85V10.83H23.2v5.09a10,10,0,0,0-2.06.85l-3.6-3.6-4.37,4.37,3.6,3.6a10,10,0,0,0-.85,2.06H10.83v6.18h5.09a10.28,10.28,0,0,0,.85,2.06L13.17,35l4.37,4.37,3.6-3.6a10,10,0,0,0,2.06.85v5.09h6.18V36.66a10.28,10.28,0,0,0,2.06-.85l3.6,3.6L39.41,35l-3.6-3.6a10.28,10.28,0,0,0,.85-2.06h5.09V23.2H36.66A10,10,0,0,0,35.81,21.14Zm-9.52,9.79a4.64,4.64,0,1,1,4.64-4.64A4.64,4.64,0,0,1,26.29,30.93Z"/><path class="cls-3" d="M85.05,0H7.73A7.74,7.74,0,0,0,0,7.73V57.22A7.74,7.74,0,0,0,7.73,65H36.91l-1.16,9.28H30.93a.84.84,0,0,0-.6.32,1.52,1.52,0,0,0,1.16,2.51H61.3a1.52,1.52,0,0,0,1.16-2.51.86.86,0,0,0-.6-.32H57L55.88,65H85.05a7.74,7.74,0,0,0,7.74-7.73V7.73A7.75,7.75,0,0,0,85.05,0ZM7.73,3.09H85.05a4.64,4.64,0,0,1,4.64,4.64V49.49H3.09V7.73A4.64,4.64,0,0,1,7.73,3.09ZM53.92,74.23H38.87L40,65H52.76ZM85.05,61.86H7.73a4.64,4.64,0,0,1-4.64-4.64V52.58h86.6v4.64A4.64,4.64,0,0,1,85.05,61.86Z"/><path class="cls-3" d="M80.86,56.12a1.67,1.67,0,0,0-.45,1.1,1.55,1.55,0,1,0,.45-1.1Z"/><path class="cls-3" d="M10.83,30.93h4l.08.19-2.83,2.82a1.56,1.56,0,0,0,0,2.19l4.38,4.37a1.53,1.53,0,0,0,2.18,0l2.83-2.82.19.08v4A1.54,1.54,0,0,0,23.2,43.3h6.18a1.54,1.54,0,0,0,1.55-1.55v-4l.19-.08,2.82,2.82a1.54,1.54,0,0,0,2.19,0l4.37-4.37a1.54,1.54,0,0,0,0-2.19l-2.82-2.82.08-.19h4a1.54,1.54,0,0,0,1.55-1.55V23.2a1.54,1.54,0,0,0-1.55-1.55h-4l-.08-.19,2.82-2.83a1.53,1.53,0,0,0,0-2.18l-4.37-4.38a1.56,1.56,0,0,0-2.19,0L31.12,14.9l-.19-.08v-4a1.54,1.54,0,0,0-1.55-1.55H23.2a1.54,1.54,0,0,0-1.55,1.55v4l-.19.08-2.83-2.83a1.55,1.55,0,0,0-2.18,0l-4.38,4.38a1.55,1.55,0,0,0,0,2.18l2.83,2.83-.08.19h-4A1.54,1.54,0,0,0,9.28,23.2v6.18A1.54,1.54,0,0,0,10.83,30.93Zm1.54-6.19h3.55a1.55,1.55,0,0,0,1.48-1.1,8.72,8.72,0,0,1,.73-1.76,1.56,1.56,0,0,0-.27-1.83l-2.51-2.51,2.19-2.19,2.51,2.51a1.56,1.56,0,0,0,1.83.27,8.72,8.72,0,0,1,1.76-.73,1.55,1.55,0,0,0,1.1-1.48V12.37h3.1v3.55a1.55,1.55,0,0,0,1.1,1.48,8.72,8.72,0,0,1,1.76.73,1.56,1.56,0,0,0,1.83-.27L35,15.35l2.18,2.19-2.5,2.51a1.55,1.55,0,0,0-.27,1.83,9.33,9.33,0,0,1,.73,1.76,1.55,1.55,0,0,0,1.48,1.1h3.55v3.1H36.66a1.55,1.55,0,0,0-1.48,1.1,9.33,9.33,0,0,1-.73,1.76,1.55,1.55,0,0,0,.27,1.83L37.22,35,35,37.22l-2.51-2.5a1.55,1.55,0,0,0-1.83-.27,9.33,9.33,0,0,1-1.76.73,1.55,1.55,0,0,0-1.1,1.48v3.55h-3.1V36.66a1.55,1.55,0,0,0-1.1-1.48,9.33,9.33,0,0,1-1.76-.73,1.55,1.55,0,0,0-1.83.27l-2.51,2.5L15.35,35l2.51-2.51a1.56,1.56,0,0,0,.27-1.83,8.72,8.72,0,0,1-.73-1.76,1.55,1.55,0,0,0-1.48-1.1H12.37Z"/><path class="cls-3" d="M26.29,32.48a6.19,6.19,0,1,0-6.19-6.19A6.19,6.19,0,0,0,26.29,32.48Zm0-9.28a3.09,3.09,0,1,1-3.09,3.09A3.09,3.09,0,0,1,26.29,23.2Z"/><path class="cls-3" d="M51.67,13.92h8.64V10.83H51a1.54,1.54,0,0,0-1.09.45L45.3,15.92l2.19,2.18Z"/><path class="cls-3" d="M63.4,7.73h3.1v3.1H63.4Z"/><path class="cls-3" d="M69.59,7.73h6.19v3.1H69.59Z"/><path class="cls-3" d="M63.4,13.92H75.78V17H63.4Z"/><path class="cls-3" d="M51,38.66h9.28V35.57H51.67l-4.18-4.19L45.3,33.57l4.64,4.64A1.54,1.54,0,0,0,51,38.66Z"/><path class="cls-3" d="M63.4,32.48h9.28v3.09H63.4Z"/><path class="cls-3" d="M63.4,38.66h3.1v3.09H63.4Z"/><path class="cls-3" d="M69.59,38.66h7.73v3.09H69.59Z"/></svg>