<svg id="Layer_1" data-name="Layer 1" xmlns="http://www.w3.org/2000/svg" xmlns:xlink="http://www.w3.org/1999/xlink" viewBox="0 0 521 515.4"><defs><style>.cls-1{fill:none;}.cls-2{clip-path:url(#clip-path);}.cls-3{fill:#fff;opacity:0.05;}</style><clipPath id="clip-path"><rect class="cls-1" width="521" height="453"/></clipPath></defs><title>manita</title><g class="cls-2"><path class="cls-3" d="M461.12,233.6c-1.69,1.28-4,2-5.81,2.65-6.9,2.69-17.52,3.64-23.72,3.58s-8.72.21-13.29.24c-3.07,0-4.24,0-6.6.13a56.2,56.2,0,0,0-6.24.63c-8.21,1.4-15.09,4.61-22.37,8-3.3,1.55-6.37,3.14-9.47,5a2.6,2.6,0,0,1,.1.25c-13,10.94-29.15,26.44-16.9,42.85.11.16.26.17.34.22,6.34,4,13,8,20,10.42a42.33,42.33,0,0,0,9.94,2.36,47.71,47.71,0,0,0,11.19-.22c15.68-.48,29.74-13.18,45.42-11s24.71,15.08,22.26,28.72c-2.18,12.15-12.76,20.94-26.71,20.49-15.78-.51-27.51-15.15-42.63-18.8a54.39,54.39,0,0,0-11-2.5c-3.88-.43-8.11-.75-12-.94-.78,0-1.44-.06-2.09,0s-1.13.12-1.74.16a167.57,167.57,0,0,0-24.48,4,63.83,63.83,0,0,0-7.68,2.48l-.51.2c-2.57,1.17-5.35,2-7.66,3.07A90.74,90.74,0,0,0,313.36,345c-17.25,12.26-34.87,21.48-56.63,24.88,0,.59,0,1,0,1.65.09,2.63.36,6.18.61,8.63.67,6.53.78,11.32,2.49,17.85,3.41,13,10.46,24.69,18.46,36.42a68.87,68.87,0,0,0,8.41,9.52c1.44,1.39,3.54,3.27,5.39,4.86.65.55,4.45,2.21,8.57,3.92.26.85.52,1.69.79,2.53,0,.08,0,.16.05.24s.19-.11.28-.18c.15,1.3.29,2.62.43,4,.19,2,.4,4,.66,6-1.5,21.92-17.09,40.46-40,47.39a63.66,63.66,0,0,1-18.53,2.74c-6.34,0-12.91-1.49-19.25-2.93-23.42-5.32-39.75-27-38.84-51.46.06-1.8.16-4.17.26-6.75.07-1.94.15-4,.23-5.93a3.31,3.31,0,0,0,.33.15,5.15,5.15,0,0,1,0-.88,4.76,4.76,0,0,1,.11-1.46h0c2.88-3.2,5.27-5.67,5.49-5.8,2.11-1.23,4.7-2.75,6.31-3.85a45.6,45.6,0,0,0,9.27-8c8.37-10.47,12.61-21,13.64-33.53.52-6.29-.06-11.41,0-17.79,0-2.39,0-6.28.05-8.83a17.74,17.74,0,0,0-.17-4.57,1.3,1.3,0,0,0-.31-.79c-.63-.48-1.7-.89-2.33-1.31-25-16.55-35.4-33.88-45.16-60a4.87,4.87,0,0,0-.24-.59,63.22,63.22,0,0,1-3-7.13c-.5-1.48-1.1-4-1.62-5.56-1.34-3.95-3-7.68-4.62-11.39a114,114,0,0,0-8-15.52c-4.53-4.51-8.85-9.3-13.61-13.59a94.26,94.26,0,0,0-8.23-6.56,50.41,50.41,0,0,0-8.94-5.44,71,71,0,0,0-10.36-3.29l-10.35-2.83c-3.94-1-7.06-1.57-11-2.47-3-.66-8-1.6-10.71-2.26-7.71-1.88-15.33-3.2-21.16-7.95-11.17-9.11-13.82-22.53-5-33.75C65.37,173,78.31,171.13,90.68,176c6.76,2.68,11.13,8.17,16.11,13.38,1.85,1.93,5,5.71,7,7.86,2.62,2.87,4.52,5.24,7.31,8,2.08,2.08,5.34,5.33,7.38,7.31a69,69,0,0,0,7.56,7c2.71,1.94,5.16,3.1,7.84,4.72.48.28,1.07.5,1.33.65l.07,0c.07.05,0,0,0,0,48.53,19.34,68.77,6.23,80.67-38.06a15.74,15.74,0,0,0,.58-5.08c.15-8.27.32-14.73-.7-22.83a135.8,135.8,0,0,0-4.36-22.44c-1.23-4.52-5.48-12.83-8.88-19.46-3.77-7.36-11.35-16.52-17.41-24s-9.93-16.93-5.94-26.74c7.07-17.43,25.23-25.44,44.75-17.62,12,4.8,17.33,16,17.61,27.41a21.83,21.83,0,0,1-1.53,7.54c-3.54,10-5.71,22.43-5.33,32.11a86.56,86.56,0,0,0,1.76,15.43,145.85,145.85,0,0,0,7.42,21.6c3.07,7.39,6.84,13.52,10.77,20.47a53.23,53.23,0,0,0,7.06,9.82c2.84,3.12,6.08,6.33,9.28,9.31a17.15,17.15,0,0,0,2.63,2.06,5.06,5.06,0,0,0,1.61.74c1.71.47,3.07.88,5.17,1.31a22.56,22.56,0,0,0,14-1.58s-.39.2.15-.07c.74-.36,3.28-1.63,4.22-2.2.55-.34.81-.81,1.15-1s.27.15.52.07a55.11,55.11,0,0,0,11.81-9.52,82,82,0,0,0,12-16.75c3.22-6.23,5.16-13.09,7.41-19.75,1.14-3.35,2.27-6.81,3.08-10.3s.88-7.88,1.54-11.29c1.32-6.78,2.73-14.4,8-19.34,13.52-12.73,32.16-15.17,47.46-3.81,14.13,10.49,15.43,26.09,7.11,40.24-3.58,6.11-11.07,9.59-17.75,12.82-3.36,1.62-7.9,3-11.3,4.77s-6.66,3.79-9.82,5.81c-6.25,4-12.82,7.72-18.34,12.46a80.63,80.63,0,0,0-13.81,15.57c-4.12,5.85-6.42,12.49-7.86,19.4a16.23,16.23,0,0,0-.65,4,13.36,13.36,0,0,0,1.1,5.74,28.08,28.08,0,0,0,3.88,6.54c3.71,4,8.86,6.09,14.4,7.5a15.93,15.93,0,0,0,2.94.14,55.33,55.33,0,0,1,6.63.67,21.58,21.58,0,0,0,6.28-.11,56.65,56.65,0,0,0,11.17-3.06c7.33-2.62,14.24-5.07,20.41-9.67a41.72,41.72,0,0,0,4.34-4.12c1.5-1.49,2.47-2.83,4.1-4.67,2.41-2.74,5.45-6.2,8-9.14,4.53-5.45,9.91-11.14,16.43-14.5,13.12-6.77,28.25-6.55,38,4.56C478.48,208.79,474.25,223.65,461.12,233.6Z"/></g></svg>