<svg id="Layer_1" data-name="Layer 1" xmlns="http://www.w3.org/2000/svg" viewBox="0 0 68 77.32"><defs><style>.cls-1{fill:#1c6db6;}.cls-2{fill:#8ebee6;}.cls-3{fill:#e6e7e9;opacity:0.77;}</style></defs><title>altavoz</title><path class="cls-1" d="M62.84,30.49,37.22,4.87a6.8,6.8,0,0,0-10.44,8.61l0,.17a47.42,47.42,0,0,1-13,24.3L2,49.71a6.79,6.79,0,0,0,0,9.6L8.4,65.72a6.79,6.79,0,0,0,9.6,0l1.61-1.6,11.2,11.21a6.8,6.8,0,1,0,9.61-9.61l-4.8-4.81,1.6-1.6a6.79,6.79,0,0,0,0-9.6l-1.09-1.09A47.36,47.36,0,0,1,54.06,41l.18,0a6.8,6.8,0,0,0,8.6-.83h0A6.8,6.8,0,0,0,62.84,30.49ZM37.22,68.92a2.26,2.26,0,1,1-3.2,3.2L22.81,60.91l3.2-3.2Zm-8-14.41c.68-.68,1.7-1.72,3.31-3.1l1.5,1.5a2.27,2.27,0,0,1,0,3.2l-1.61,1.6Zm.1-6.31-9.8-9.8a51.8,51.8,0,0,0,11-21L50.31,37.18A51.8,51.8,0,0,0,29.31,48.2ZM59.64,36.9a2.28,2.28,0,0,1-3.21,0L30.81,11.28A2.27,2.27,0,0,1,34,8.07L59.64,33.69A2.28,2.28,0,0,1,59.64,36.9Z"/><path class="cls-2" d="M47.62,0a2.27,2.27,0,0,0-2.27,2.26V6.79a2.27,2.27,0,1,0,4.53,0V2.26A2.26,2.26,0,0,0,47.62,0Z"/><path class="cls-2" d="M65.74,18.12H61.21a2.27,2.27,0,1,0,0,4.53h4.53a2.27,2.27,0,0,0,0-4.53Z"/><path class="cls-2" d="M62.81,5.19a2.27,2.27,0,0,0-3.2,0L55.08,9.72a2.26,2.26,0,0,0,3.2,3.2l4.53-4.53A2.27,2.27,0,0,0,62.81,5.19Z"/><path class="cls-3" d="M37.22,68.92a2.26,2.26,0,1,1-3.2,3.2L22.81,60.91l3.2-3.2Z"/><path class="cls-3" d="M29.31,48.2l-9.8-9.8a51.8,51.8,0,0,0,11-21L50.31,37.18A51.8,51.8,0,0,0,29.31,48.2Z"/><path class="cls-3" d="M59.64,36.9a2.28,2.28,0,0,1-3.21,0L30.81,11.28A2.27,2.27,0,0,1,34,8.07L59.64,33.69A2.28,2.28,0,0,1,59.64,36.9Z"/></svg>