<svg id="Layer_1" data-name="Layer 1" xmlns="http://www.w3.org/2000/svg" viewBox="0 0 128 40"><defs><style>.cls-1{fill:#fff;}</style></defs><title>app store</title><rect width="128" height="40" rx="4"/><path class="cls-1" d="M27,19.75A5.6,5.6,0,0,1,29.66,15a5.8,5.8,0,0,0-4.54-2.46c-1.9-.2-3.75,1.15-4.73,1.15s-2.48-1.13-4.09-1.09a6,6,0,0,0-5.09,3.1c-2.19,3.8-.55,9.39,1.55,12.47,1.05,1.5,2.28,3.18,3.89,3.12s2.17-1,4.07-1,2.44,1,4.08,1,2.76-1.52,3.77-3a12.34,12.34,0,0,0,1.73-3.51A5.42,5.42,0,0,1,27,19.75Z"/><path class="cls-1" d="M23.88,10.56a5.56,5.56,0,0,0,1.26-4A5.59,5.59,0,0,0,21.5,8.48a5.28,5.28,0,0,0-1.3,3.82A4.66,4.66,0,0,0,23.88,10.56Z"/><path class="cls-1" d="M49.79,26.6H47.58l-1.2-3.79h-4.2L41,26.6H38.89l4.16-12.9h2.56ZM46,21.22l-1.09-3.37c-.11-.34-.33-1.15-.65-2.43h0c-.12.55-.33,1.36-.61,2.43l-1.07,3.37Z"/><path class="cls-1" d="M60.47,21.84a5.31,5.31,0,0,1-1.28,3.75,3.79,3.79,0,0,1-2.86,1.22,2.86,2.86,0,0,1-2.64-1.32h0v4.9H51.58v-10c0-1,0-2-.07-3.06h1.82l.11,1.47h0a3.69,3.69,0,0,1,5.89-.36A5.15,5.15,0,0,1,60.47,21.84Zm-2.11.07a3.84,3.84,0,0,0-.61-2.24,2.19,2.19,0,0,0-3.19-.41,2.39,2.39,0,0,0-.81,1.33,2.51,2.51,0,0,0-.1.63v1.55a2.52,2.52,0,0,0,.62,1.72,2.26,2.26,0,0,0,3.44-.2A3.94,3.94,0,0,0,58.36,21.91Z"/><path class="cls-1" d="M71.17,21.84a5.31,5.31,0,0,1-1.28,3.75A3.79,3.79,0,0,1,67,26.81a2.86,2.86,0,0,1-2.64-1.32h0v4.9H62.29v-10c0-1,0-2-.08-3.06H64l.11,1.47h0a3.69,3.69,0,0,1,5.89-.36A5.15,5.15,0,0,1,71.17,21.84Zm-2.11.07a3.84,3.84,0,0,0-.61-2.24,2.12,2.12,0,0,0-1.8-.92,2.15,2.15,0,0,0-1.39.51,2.39,2.39,0,0,0-.81,1.33,2.94,2.94,0,0,0-.09.63v1.55A2.48,2.48,0,0,0,65,24.49a2.07,2.07,0,0,0,1.62.7,2.11,2.11,0,0,0,1.81-.9A3.94,3.94,0,0,0,69.06,21.91Z"/><path class="cls-1" d="M83.14,23A3.42,3.42,0,0,1,82,25.66a5,5,0,0,1-3.51,1.13,6.13,6.13,0,0,1-3.35-.8l.48-1.72a5.65,5.65,0,0,0,3,.82,2.84,2.84,0,0,0,1.82-.53,1.73,1.73,0,0,0,.65-1.41,1.8,1.8,0,0,0-.54-1.32,4.94,4.94,0,0,0-1.78-1c-2.26-.84-3.39-2.08-3.39-3.7a3.29,3.29,0,0,1,1.19-2.61,4.67,4.67,0,0,1,3.16-1,6.24,6.24,0,0,1,2.93.61l-.52,1.68a5.15,5.15,0,0,0-2.47-.59,2.48,2.48,0,0,0-1.7.54,1.5,1.5,0,0,0-.52,1.16,1.58,1.58,0,0,0,.6,1.27,6.52,6.52,0,0,0,1.87,1,6.36,6.36,0,0,1,2.45,1.57A3.26,3.26,0,0,1,83.14,23Z"/><path class="cls-1" d="M90,18.85H87.69v4.52c0,1.14.41,1.72,1.21,1.72a3.4,3.4,0,0,0,.92-.1l.06,1.57a4.54,4.54,0,0,1-1.61.23,2.51,2.51,0,0,1-1.92-.74,3.68,3.68,0,0,1-.69-2.51V18.85H84.31V17.3h1.35V15.59l2-.61V17.3H90Z"/><path class="cls-1" d="M100.25,21.87A5.11,5.11,0,0,1,99,25.4a4.39,4.39,0,0,1-3.41,1.41,4.13,4.13,0,0,1-3.26-1.36A4.94,4.94,0,0,1,91.14,22a5.09,5.09,0,0,1,1.25-3.55,4.39,4.39,0,0,1,3.38-1.37,4.25,4.25,0,0,1,3.3,1.36A4.89,4.89,0,0,1,100.25,21.87Zm-2.14.07a4.22,4.22,0,0,0-.56-2.21,2,2,0,0,0-1.85-1.11,2.09,2.09,0,0,0-1.9,1.11A4.29,4.29,0,0,0,93.25,22a4.22,4.22,0,0,0,.55,2.21,2.09,2.09,0,0,0,1.88,1.11,2.06,2.06,0,0,0,1.85-1.13A4.14,4.14,0,0,0,98.11,21.94Z"/><path class="cls-1" d="M107,19.12a3.34,3.34,0,0,0-.65-.06,1.94,1.94,0,0,0-1.68.82,3.08,3.08,0,0,0-.52,1.84V26.6h-2.07l0-6.37c0-1.08,0-2.05-.08-2.93h1.81l.07,1.78h.06a3.23,3.23,0,0,1,1-1.48,2.51,2.51,0,0,1,1.5-.49,3.89,3.89,0,0,1,.51,0Z"/><path class="cls-1" d="M116.22,21.51a4.28,4.28,0,0,1-.08.94h-6.2a2.71,2.71,0,0,0,.9,2.1,3,3,0,0,0,2,.65,6.72,6.72,0,0,0,2.51-.44l.32,1.44a7.83,7.83,0,0,1-3.12.57,4.53,4.53,0,0,1-3.4-1.27A4.72,4.72,0,0,1,108,22.08a5.31,5.31,0,0,1,1.15-3.5,3.94,3.94,0,0,1,3.25-1.49,3.46,3.46,0,0,1,3.05,1.49A5,5,0,0,1,116.22,21.51Zm-2-.54a2.85,2.85,0,0,0-.4-1.59,1.82,1.82,0,0,0-1.65-.86,2,2,0,0,0-1.65.85,3.06,3.06,0,0,0-.61,1.6Z"/></svg>