<svg id="Layer_1" data-name="Layer 1" xmlns="http://www.w3.org/2000/svg" viewBox="0 0 44.31 44.31"><defs><style>.cls-1{fill:#ee2e79;}.cls-2{fill:#fff;}</style></defs><title>blog</title><path class="cls-1" d="M22.16,0A22.16,22.16,0,1,1,0,22.16,22.16,22.16,0,0,1,22.16,0Z"/><path class="cls-2" d="M33.17,20.28,33,19.89l-.31-.24c-.41-.32-2.47,0-3-.48-.39-.36-.45-1-.57-1.9a5.61,5.61,0,0,0-.63-2.37A7.74,7.74,0,0,0,23,11.08H18.1a7,7,0,0,0-7,7v8.17a7,7,0,0,0,7,7h8.07a7,7,0,0,0,7-7l.05-5.66ZM18,16.63h4.08a1.38,1.38,0,1,1,0,2.76H18a1.38,1.38,0,1,1,0-2.76ZM26.3,27.69H18a1.39,1.39,0,1,1,0-2.77H26.3a1.39,1.39,0,1,1,0,2.77Z"/></svg>