<svg id="Layer_1" data-name="Layer 1" xmlns="http://www.w3.org/2000/svg" viewBox="0 0 14.71 25.96"><defs><style>.cls-1{fill:#fff;}</style></defs><title>Celullar</title><path class="cls-1" d="M12.81,0H1.91A1.9,1.9,0,0,0,0,1.91V24.06A1.9,1.9,0,0,0,1.91,26h10.9a1.9,1.9,0,0,0,1.9-1.9V1.91A1.9,1.9,0,0,0,12.81,0M5.62,1.3H9.09a.43.43,0,0,1,0,.86H5.62a.43.43,0,0,1,0-.86M7.36,24.15a1.22,1.22,0,1,1,1.21-1.22,1.22,1.22,0,0,1-1.21,1.22m5.51-4.25h-11a.48.48,0,0,1-.49-.48V4a.49.49,0,0,1,.49-.49h11a.49.49,0,0,1,.49.49V19.42a.48.48,0,0,1-.49.48"/></svg>