<svg id="Layer_1" data-name="Layer 1" xmlns="http://www.w3.org/2000/svg" viewBox="0 0 23.37 17.17"><defs><style>.cls-1{fill:#fff;}</style></defs><title>Correo</title><path class="cls-1" d="M22,.17h0A2.12,2.12,0,0,0,21.14,0H2.23A2.12,2.12,0,0,0,1.4.17h0A2.23,2.23,0,0,0,0,2.23V14.94a2.23,2.23,0,0,0,2.23,2.23H21.14a2.24,2.24,0,0,0,2.23-2.23V2.23A2.23,2.23,0,0,0,22,.17m-2.25,1.6L12.3,7.06a1.08,1.08,0,0,1-1.24,0L3.65,1.77ZM21.14,15.4H2.23a.47.47,0,0,1-.46-.46V2.6L10,8.5a2.86,2.86,0,0,0,3.29,0L21.6,2.6V14.94a.47.47,0,0,1-.46.46"/></svg>