<svg id="Layer_1" data-name="Layer 1" xmlns="http://www.w3.org/2000/svg" viewBox="0 0 67.89 68.2"><defs><style>.cls-1{fill:#1c6db6;}.cls-2{fill:#e6e7e9;}.cls-3{fill:#8ebee6;opacity:0.77;}</style></defs><title>diana</title><path class="cls-1" d="M30.66,68.2A30.68,30.68,0,0,0,57.73,23.14a6.47,6.47,0,0,1-.76.05l-.44,0-3.9-.3-2.81,2.81a22.52,22.52,0,1,1-7.3-7.3l2.54-2.54-.34-4.47a6.24,6.24,0,0,1,0-1.06A30.66,30.66,0,1,0,30.66,68.2Z"/><path class="cls-2" d="M30.66,29.62l.6,0L36.92,24l.12-.12a15.13,15.13,0,1,0,7.29,7.3l-.12.12-5.66,5.66c0,.2,0,.4,0,.6a7.92,7.92,0,1,1-7.91-7.92Z"/><path class="cls-3" d="M62.25,10.2l1.82-1.81a2.12,2.12,0,0,0,0-3L62.81,4.12a2.11,2.11,0,0,0-3,0L57.74,6.2,57.31.66A.71.71,0,0,0,56.59,0a.67.67,0,0,0-.5.21L47.9,8.4a3.58,3.58,0,0,0-1,2.81l0,.32.39,5.13-3,3L39,25l-.12.13L33.7,30.24l-2.29,2.29a1.78,1.78,0,0,0-.52,1.12l-.14,1.8a1.78,1.78,0,0,0,1.78,1.93h.1l1.89-.1a1.74,1.74,0,0,0,1.18-.52L38,34.49l5.16-5.16.13-.12,5.33-5.33,3.22-3.22,4.68.36H57A3.57,3.57,0,0,0,59.49,20l8.19-8.18a.72.72,0,0,0-.45-1.22Z"/></svg>